<!DOCTYPE svg PUBLIC "-//W3C//DTD SVG 20010904//EN" "http://www.w3.org/TR/2001/REC-SVG-20010904/DTD/svg10.dtd">
<svg version="1.0" xmlns="http://www.w3.org/2000/svg" width="138px" height="67px" viewBox="0 0 1380 670" preserveAspectRatio="xMidYMid meet">
<g id="layer101" fill="#5a5a5a" stroke="none">
 <path d="M1022 661 c2 -5 70 -81 152 -168 82 -87 124 -134 93 -104 -31 30 -59 52 -62 49 -4 -3 16 -34 44 -69 50 -62 59 -79 43 -79 -5 0 -18 -8 -30 -17 -11 -10 -30 -25 -42 -33 -12 -8 -30 -22 -40 -30 -10 -8 -28 -22 -41 -30 -12 -8 -34 -27 -49 -41 -15 -14 -35 -29 -44 -32 -9 -4 -16 -11 -16 -17 0 -20 -26 -9 -49 23 -30 38 -243 239 -261 245 -7 3 -11 0 -9 -6 7 -19 322 -353 331 -350 9 3 278 268 272 268 -3 0 11 14 31 31 19 17 35 36 34 43 -1 15 -334 326 -349 326 -6 0 -10 -4 -8 -9z"/>
 <path d="M990 627 c0 -14 41 -57 53 -57 15 0 6 28 -16 48 -27 25 -37 28 -37 9z"/>
 <path d="M950 598 c0 -19 48 -64 57 -54 10 9 -8 36 -35 54 -19 13 -22 13 -22 0z"/>
 <path d="M920 560 c0 -19 38 -52 50 -45 8 5 5 15 -11 31 -24 25 -39 31 -39 14z"/>
 <path d="M938 472 c-70 -53 -127 -101 -127 -105 -1 -4 44 -66 100 -137 l101 -130 64 50 c35 27 93 73 129 101 36 28 65 54 65 59 0 9 -189 254 -198 257 -4 2 -64 -41 -134 -95z m128 -117 c16 -24 15 -26 -7 -44 -23 -18 -23 -18 -43 6 l-19 25 24 19 c30 23 26 24 45 -6z"/>
 <path d="M880 530 c0 -15 33 -50 47 -50 19 0 16 14 -10 38 -25 24 -37 28 -37 12z"/>
 <path d="M850 493 c1 -14 27 -43 39 -43 16 0 13 15 -7 33 -20 18 -32 22 -32 10z"/>
 <path d="M12 468 c-18 -18 -15 -68 3 -68 8 0 15 9 15 20 0 11 7 20 15 20 25 0 17 -51 -15 -100 -38 -57 -43 -133 -9 -150 31 -17 69 11 69 50 0 36 -27 42 -32 8 -2 -13 -7 -23 -13 -23 -22 0 -15 45 14 93 22 35 31 62 31 94 0 48 -13 68 -45 68 -12 0 -26 -5 -33 -12z"/>
 <path d="M120 335 c0 -122 2 -145 15 -145 13 0 15 23 15 145 0 122 -2 145 -15 145 -13 0 -15 -23 -15 -145z"/>
 <path d="M180 335 c0 -138 1 -145 20 -145 16 0 20 7 20 38 0 20 5 44 10 52 7 11 10 0 10 -37 0 -46 3 -53 20 -53 19 0 20 7 20 145 0 138 -1 145 -20 145 -18 0 -20 -7 -20 -57 0 -32 -5 -65 -10 -73 -7 -10 -10 7 -10 58 0 65 -2 72 -20 72 -19 0 -20 -7 -20 -145z"/>
 <path d="M330 355 c0 -104 -2 -125 -15 -125 -8 0 -15 -9 -15 -20 0 -17 7 -20 45 -20 34 0 45 4 45 15 0 9 -7 18 -15 21 -12 5 -15 29 -15 130 0 104 -2 124 -15 124 -13 0 -15 -21 -15 -125z"/>
 <path d="M410 340 c0 -131 1 -140 21 -150 16 -9 26 -8 45 5 23 15 24 19 24 150 0 128 -1 135 -20 135 -18 0 -20 -7 -20 -55 0 -30 -4 -55 -10 -55 -5 0 -10 25 -10 55 0 42 -3 55 -15 55 -13 0 -15 -22 -15 -140z m50 -65 c0 -30 -4 -55 -10 -55 -5 0 -10 25 -10 55 0 30 5 55 10 55 6 0 10 -25 10 -55z"/>
 <path d="M530 335 l0 -145 33 0 c53 0 57 11 57 147 0 111 -2 123 -19 133 -11 5 -31 10 -45 10 l-26 0 0 -145z m52 0 c2 -79 0 -105 -9 -105 -10 0 -13 28 -13 105 0 59 4 105 9 105 6 0 11 -47 13 -105z"/>
 <path d="M810 462 c0 -10 33 -42 43 -42 14 0 7 23 -10 36 -21 16 -33 18 -33 6z"/>
 <path d="M780 422 c0 -10 22 -32 32 -32 15 0 8 28 -8 34 -21 8 -24 8 -24 -2z"/>
 <path d="M740 393 c0 -5 17 -26 37 -47 46 -48 57 -31 12 19 -31 33 -49 44 -49 28z"/>
 </g>
<g id="layer102" fill="#e22f22" stroke="none">
 <path d="M1022 661 c2 -5 70 -81 152 -168 82 -87 124 -134 93 -104 -31 30 -59 52 -62 49 -4 -3 16 -34 44 -69 50 -62 59 -79 43 -79 -5 0 -18 -8 -30 -17 -11 -10 -30 -25 -42 -33 -12 -8 -30 -22 -40 -30 -10 -8 -28 -22 -41 -30 -12 -8 -34 -27 -49 -41 -15 -14 -35 -29 -44 -32 -9 -4 -16 -11 -16 -17 0 -20 -26 -9 -49 23 -30 38 -243 239 -261 245 -7 3 -11 0 -9 -6 7 -19 322 -353 331 -350 9 3 278 268 272 268 -3 0 11 14 31 31 19 17 35 36 34 43 -1 15 -334 326 -349 326 -6 0 -10 -4 -8 -9z"/>
 <path d="M990 627 c0 -14 41 -57 53 -57 15 0 6 28 -16 48 -27 25 -37 28 -37 9z"/>
 <path d="M950 598 c0 -19 48 -64 57 -54 10 9 -8 36 -35 54 -19 13 -22 13 -22 0z"/>
 <path d="M920 560 c0 -19 38 -52 50 -45 8 5 5 15 -11 31 -24 25 -39 31 -39 14z"/>
 <path d="M938 472 c-70 -53 -127 -101 -127 -105 -1 -4 44 -66 100 -137 l101 -130 64 50 c35 27 93 73 129 101 36 28 65 54 65 59 0 9 -189 254 -198 257 -4 2 -64 -41 -134 -95z m128 -117 c16 -24 15 -26 -7 -44 -23 -18 -23 -18 -43 6 l-19 25 24 19 c30 23 26 24 45 -6z"/>
 <path d="M880 530 c0 -15 33 -50 47 -50 19 0 16 14 -10 38 -25 24 -37 28 -37 12z"/>
 <path d="M850 493 c1 -14 27 -43 39 -43 16 0 13 15 -7 33 -20 18 -32 22 -32 10z"/>
 <path d="M810 462 c0 -10 33 -42 43 -42 14 0 7 23 -10 36 -21 16 -33 18 -33 6z"/>
 <path d="M780 422 c0 -10 22 -32 32 -32 15 0 8 28 -8 34 -21 8 -24 8 -24 -2z"/>
 <path d="M740 393 c0 -5 17 -26 37 -47 46 -48 57 -31 12 19 -31 33 -49 44 -49 28z"/>
 </g>

</svg>